<svg height="38.127" width="100" xmlns="http://www.w3.org/2000/svg"><path style="-inkscape-stroke:none" d="M13.444.007a167.04 167.04 0 00-5.31.035l.039 1.76c1.751-.038 3.503-.05 5.255-.034zm5.311.137l-.074 1.76c1.75.073 3.498.177 5.244.311L24.06.46a153.47 153.47 0 00-5.305-.315zM2.827.243C1.884.293.942.35 0 .415l.12 1.757c.934-.064 1.867-.121 2.8-.17zM29.35.962l-.198 1.75c1.74.197 3.475.426 5.204.689l.265-1.741c-1.752-.267-3.51-.499-5.27-.698zm10.512 1.601l-.333 1.73c1.717.33 3.428.698 5.13 1.101l.406-1.714c-1.726-.41-3.461-.78-5.203-1.117zm10.353 2.458l-.481 1.695c1.68.477 3.35.994 5.007 1.55l.56-1.67c-1.683-.565-3.38-1.09-5.086-1.575zm10.093 3.392l-.64 1.64a101.58 101.58 0 014.828 2.031l.724-1.605c-1.62-.731-3.257-1.42-4.912-2.066zm9.71 4.388l-.81 1.564a93.466 93.466 0 014.58 2.534l.896-1.517a95.202 95.202 0 00-4.666-2.581zm9.18 5.422l-.982 1.463a88.684 88.684 0 014.257 3.04l1.066-1.402a90.433 90.433 0 00-4.342-3.1zm8.491 6.454l-1.147 1.336a86.526 86.526 0 013.864 3.524l1.226-1.264a88.286 88.286 0 00-3.943-3.596z" color="#000" fill="#959595"/><g color="#000" fill="#959595" fill-rule="evenodd"><path style="-inkscape-stroke:none" d="M98.696 36.778l-13.537-3.866 10.13-9.794z"/><path style="-inkscape-stroke:none" d="M95.807 21.312L83.336 33.368 100 38.128l-.393-1.578zm-1.035 3.613l2.619 10.503-10.409-2.972z"/></g></svg>