<svg width="47" height="40.492" xmlns="http://www.w3.org/2000/svg">
  <g fill="#ff8d48">
    <path d="M18.288 24.772h3.497v6.251a.918.918 0 001.71.465l6.008-10.232a.918.918 0 00-.791-1.383h-3.497v-6.25a.918.918 0 00-1.71-.465L17.496 23.39a.918.918 0 00.792 1.383zM23.378 17v3.793c0 .507.412.918.919.918h2.811l-3.487 5.937v-3.793a.918.918 0 00-.918-.917h-2.812zM34.394 23.241h.973v.973a.918.918 0 001.836 0v-.973h.972a.918.918 0 000-1.836h-.972v-.972a.918.918 0 00-1.836 0v.972h-.973a.918.918 0 000 1.836zM8.825 23.24h3.78a.918.918 0 100-1.836h-3.78a.918.918 0 000 1.836z"/>
    <path d="M46.082 10.788A.918.918 0 0047 9.87V5.071a.918.918 0 00-.918-.918h-4.306V.918A.918.918 0 0040.858 0h-9.146a.918.918 0 00-.918.918v3.235H27.65a.918.918 0 000 1.836h17.514v2.963H1.836V5.99H19.35a.918.918 0 100-1.836h-3.145V.918A.918.918 0 0015.287 0H6.141a.918.918 0 00-.918.918v3.235H.917A.918.918 0 000 5.071v4.8c0 .506.411.917.918.917H2.73v23.069H.917a.918.918 0 00-.918.918v4.799c0 .507.411.918.918.918h45.164a.918.918 0 00.918-.918v-4.8a.918.918 0 00-.918-.917H44.27V10.788zM32.63 4.153V1.836h7.31v2.317zM7.06 1.836h7.31v2.317H7.06zm38.104 36.82H1.836v-2.964h43.328zm-2.73-4.8H4.567V10.788h37.867z"/>
    <path d="M22.67 5.423c.144.348.498.58.876.566a.928.928 0 00.84-.622.925.925 0 00-.299-1.014.927.927 0 00-1.055-.061.926.926 0 00-.363 1.13z"/>
  </g>
</svg>
