<svg height="44" viewBox="0 -11 33.052 33" width="44" xmlns="http://www.w3.org/2000/svg"><g fill="#fff"><path d="M25.326-6.099a.567.567 0 00.117-.003c.65.014 1.172.571 1.173 1.255 0 .31.24.562.535.562a.55.55 0 00.536-.562c-.002-1.118-.743-2.086-1.782-2.326v-.54a.55.55 0 00-.536-.563.55.55 0 00-.535.562v.566c-1.1.309-1.81 1.426-1.663 2.611.149 1.185 1.11 2.071 2.248 2.071.661 0 1.197.563 1.197 1.257S26.08.047 25.419.047c-.66 0-1.196-.562-1.196-1.256a.55.55 0 00-.535-.563.55.55 0 00-.536.563c.001 1.077.69 2.02 1.682 2.3v.616c0 .311.24.563.535.563a.55.55 0 00.536-.563v-.59c1.13-.26 1.893-1.374 1.768-2.582-.124-1.21-1.096-2.126-2.254-2.125-.642 0-1.17-.533-1.195-1.207-.026-.674.461-1.25 1.102-1.302zm0 0"/><path d="M25.45-11.026c-3.294 0-6.106 2.258-7.159 5.28H5.001c-.295 0-.534.28-.536.589l-.127 19.73H.55a.538.538 0 00-.55.537v2.504c.007 2.357 1.774 4.293 4.016 4.4v.012H20.55v-.016c.134.005.189.016.273.016h.012c2.32-.004 4.2-1.98 4.2-4.418V4.948c.133.008.275.012.414.012 4.192 0 7.603-3.59 7.603-7.993 0-4.403-3.41-7.993-7.602-7.993zM4.22 20.9h-.003c-1.733-.002-3.138-1.474-3.146-3.293v-1.91h15.53V17.6c0 1.174.446 2.299 1.24 3.126.055.06.125.105.184.175zm19.743-3.293c0 1.816-1.4 3.29-3.129 3.293h-.01c-1.736-.003-3.144-1.477-3.153-3.3V15.11a.533.533 0 00-.145-.385.482.482 0 00-.366-.151H5.41L5.531-4.62h12.462a8.863 8.863 0 00-.147 1.562A8.273 8.273 0 0018.493.16h-5.057a.55.55 0 00-.536.562c0 .31.24.563.536.563h5.638c1.105 1.824 2.871 3.096 4.89 3.522zM25.45 3.836c-3.607 0-6.532-3.072-6.532-6.86 0-3.79 2.925-6.862 6.532-6.862s6.532 3.072 6.532 6.861c-.004 3.787-2.926 6.857-6.532 6.86zm0 0"/><path d="M9.998 3.904c-.945 0-1.714.782-1.714 1.743 0 .961.769 1.743 1.714 1.743s1.714-.782 1.714-1.743c0-.961-.769-1.743-1.714-1.743zm0 2.361a.632.632 0 01-.643-.618c0-.341.289-.618.643-.618.355 0 .643.277.643.618 0 .34-.288.618-.643.618zm0 0M12.9 5.645c0 .31.24.562.536.562h7.139a.55.55 0 00.535-.562.55.55 0 00-.535-.563h-7.14a.55.55 0 00-.535.563zm0 0M9.998-.985c-.945 0-1.714.782-1.714 1.743 0 .961.769 1.743 1.714 1.743s1.714-.782 1.714-1.743c0-.961-.769-1.743-1.714-1.743zm0 2.361a.632.632 0 01-.643-.618c0-.34.289-.618.643-.618.355 0 .643.277.643.618 0 .34-.288.618-.643.618zm0 0M9.998 8.793c-.945 0-1.714.782-1.714 1.743 0 .961.769 1.743 1.714 1.743s1.714-.782 1.714-1.743c0-.961-.769-1.743-1.714-1.743zm0 2.361a.631.631 0 01-.643-.618c0-.341.289-.618.643-.618.355 0 .643.277.643.618 0 .34-.288.618-.643.618zm0 0M20.575 10.004h-7.14a.55.55 0 00-.535.562c0 .31.24.563.536.563h7.139a.55.55 0 00.535-.563.55.55 0 00-.535-.562zm0 0"/></g></svg>