<svg width="70" height="70" xmlns="http://www.w3.org/2000/svg"><path d="M34.128 69.884c-1.118-.217-2.134-1.104-2.555-2.228-.84-2.245-1.068-5.44-1.07-14.984-.003-5.35.053-7.689.214-8.98.507-4.084 1.67-5.624 4.248-5.624 2.431 0 4.727.824 6.195 2.224 1.573 1.5 1.944 2.586 2.73 7.972.178 1.214.422 2.824.542 3.577.231 1.44.85 6.344 1.143 9.055.095.88.18 2.557.188 3.73.013 1.75-.032 2.23-.254 2.69-.343.713-1.597 1.581-2.604 1.803-1.722.379-3.315.6-5.403.749-2.43.173-2.567.174-3.374.016zm-11.239-2.123c-.82-.326-1.092-.795-1.433-2.471-.93-4.58-.331-13.982.891-13.982 1.04 0 2.203 7.672 2.026 13.375-.072 2.323-.267 3.375-.623 3.358-.097-.005-.484-.13-.86-.28zm29.153-2.946c-.947-1.343-1.83-7.722-1.465-10.588.204-1.609.416-2.066.985-2.132.523-.06 1.163.5 2.147 1.877 1.26 1.763 3.123 6.098 3.123 7.267 0 1.144-.113 1.29-2.037 2.63-1.014.708-1.995 1.287-2.178 1.288-.184 0-.443-.153-.575-.342zM12.92 61.912C7.335 57.27 3.132 50.695 1.426 43.927.67 40.93.489 39.537.406 36.089c-.152-6.343.798-10.81 3.453-16.227C7.72 11.986 14.45 5.784 22.574 2.618 26.953.912 30.946.243 35.979.371c5.77.148 9.692 1.1 14.612 3.55 15.092 7.512 22.612 24.403 18.117 40.69-1.096 3.972-3.43 8.56-6.06 11.91-.8 1.02-.766 1.03-1.81-.549-3.309-5.006-5.832-12.914-5.832-18.275 0-1.093.058-1.371.456-2.154.515-1.016 2.184-3.143 4.125-5.257 3.425-3.73 4.52-5.189 4.928-6.56.316-1.065.291-1.724-.095-2.522-.254-.524-.48-.743-1.006-.976-.658-.29-.7-.292-1.385-.031-.884.336-1.282.76-2.23 2.366-1.53 2.596-5.463 5.724-7.283 5.793-1.216.045-1.1-.65.681-4.088 1.562-3.014 1.727-3.645 1.198-4.586-.71-1.265-2.488-1.52-4.366-.626-1.441.686-2.597 1.915-3.48 3.7-.895 1.81-.978 2.538-.458 4.038.495 1.432.509 2.378.043 3.07-.583.867-2.351 2.017-3.86 2.511-1.245.408-1.523.442-3.63.442-2.973 0-3.91-.254-5.037-1.367-.727-.718-.821-.904-1.575-3.123-.44-1.297-1.232-3.25-1.758-4.337-.823-1.702-1.091-2.106-1.92-2.892-2.748-2.606-2.573-2.384-2.573-3.254 0-1 .212-1.496 1.357-3.182 1.127-1.66 1.67-2.813 1.786-3.79.227-1.912-1.316-3.004-3.403-2.407-1.94.554-4.117 2.31-4.984 4.02-.585 1.155-.71 2.147-.454 3.6.445 2.528.334 2.854-1.679 4.937-.607.628-1.254 1.438-1.439 1.8-.59 1.162-.929 2.867-1.093 5.505-.22 3.537-.496 5.42-1.119 7.604-1.018 3.572-1.033 5.2-.081 8.985 1.418 5.64 1.552 11.53.38 16.665-.321 1.404-.383 1.599-.506 1.597-.057-.002-.79-.57-1.626-1.266zM.04 37.269l-.038-2.093c-.01-.628.02-1.62.067-2.207.052-.636.098.206.114 2.093.015 1.737-.007 3.158-.049 3.158s-.084-.428-.094-.951zM32.208.087c.113-.113 5.599-.118 5.712-.005.049.05-1.235.09-2.854.09-1.618 0-2.905-.038-2.858-.085z" fill="#f14635"/></svg>