<svg width="19" height="19" viewBox="-85 0 14.25 14.25" xmlns="http://www.w3.org/2000/svg">
  <g fill="#0096e3">
    <path d="M-75.765 4.364c0-1.163-.946-2.11-2.11-2.11-1.163 0-2.11.947-2.11 2.11 0 1.164.947 2.11 2.11 2.11 1.164 0 2.11-.946 2.11-2.11z"/>
    <path d="M-77.875 11.745c.327-.426 2.244-3.06 2.89-3.94.767-1.047 1.475-2.097 1.475-3.44a4.364 4.364 0 10-8.729 0c0 1.343.708 2.393 1.475 3.44l2.89 3.94zm-2.944-7.38a2.948 2.948 0 012.944-2.946 2.948 2.948 0 012.945 2.945 2.948 2.948 0 01-2.945 2.945 2.948 2.948 0 01-2.944-2.945z"/>
    <path d="M-76.272 10.971c-.086.118-1.618 2.165-1.618 2.165l-1.587-2.165H-81.4l-1.236 3.279h9.52l-1.236-3.279z"/>
  </g>
</svg>
