<svg height="33" width="33" xmlns="http://www.w3.org/2000/svg"><g fill="#fff"><path d="M31.282 29.563h-.484v-14.87c0-.675-.55-1.225-1.225-1.225h-8.771V1.64c0-.905-.736-1.641-1.64-1.641H3.842c-.905 0-1.64.736-1.64 1.64v27.923h-.484A1.72 1.72 0 000 31.28C0 32.23.77 33 1.718 33h29.564A1.72 1.72 0 0033 31.281a1.72 1.72 0 00-1.718-1.718zM3.168 1.64c0-.372.302-.674.674-.674h15.32c.37 0 .673.302.673.674v11.827h-4.127c-.675 0-1.225.55-1.225 1.226v11.12a.483.483 0 10.967 0v-11.12c0-.143.116-.259.258-.259h13.865c.143 0 .259.116.259.259v14.869H15.45v-1.488a.483.483 0 10-.967 0v1.488H3.168zm28.114 30.392H1.718a.752.752 0 010-1.503h29.564a.752.752 0 010 1.503z"/><path d="M7.562 2.947H5.58a.96.96 0 00-.958.958v1.984c0 .528.43.958.958.958h1.983a.96.96 0 00.958-.958V3.905a.96.96 0 00-.958-.958zM7.553 5.88H5.588V3.914h1.965zM12.493 2.947H10.51a.96.96 0 00-.958.958v1.984c0 .528.43.958.958.958h1.983a.96.96 0 00.958-.958V3.905a.96.96 0 00-.958-.958zm-.009 2.933H10.52V3.914h1.965zM15.44 6.847h1.984a.96.96 0 00.958-.958V3.905a.96.96 0 00-.958-.958h-1.983a.96.96 0 00-.958.958v1.984c0 .528.43.958.958.958zm.01-2.933h1.965V5.88H15.45zM7.562 8.983H5.58a.96.96 0 00-.958.958v1.984c0 .529.43.958.958.958h1.983a.96.96 0 00.958-.958V9.941a.96.96 0 00-.958-.958zm-.009 2.933H5.588V9.95h1.965zM12.493 8.983H10.51a.96.96 0 00-.958.958v1.984c0 .529.43.958.958.958h1.983a.96.96 0 00.958-.958V9.941a.96.96 0 00-.958-.958zm-.009 2.933H10.52V9.95h1.965zM15.44 12.884h1.984a.96.96 0 00.958-.959V9.941a.96.96 0 00-.958-.958h-1.983a.96.96 0 00-.958.958v1.984c0 .529.43.959.958.959zm.01-2.934h1.965v1.966H15.45zM7.562 15.02H5.58a.96.96 0 00-.958.958v1.984c0 .528.43.958.958.958h1.983a.96.96 0 00.958-.958v-1.984a.96.96 0 00-.958-.959zm-.009 2.933H5.588v-1.966h1.965zM12.493 15.02H10.51a.96.96 0 00-.958.958v1.984c0 .528.43.958.958.958h1.983a.96.96 0 00.958-.958v-1.984a.96.96 0 00-.958-.959zm-.009 2.933H10.52v-1.966h1.965zM7.562 21.056H5.58a.96.96 0 00-.958.958v1.984c0 .528.43.958.958.958h1.983a.96.96 0 00.958-.958v-1.984a.96.96 0 00-.958-.958zm-.009 2.933H5.588v-1.966h1.965zM12.493 21.056H10.51a.96.96 0 00-.958.958v1.984c0 .528.43.958.958.958h1.983a.96.96 0 00.958-.958v-1.984a.96.96 0 00-.958-.958zm-.009 2.933H10.52v-1.966h1.965zM17.413 19.523h1.878c.455 0 .826-.371.826-.827v-1.83a.827.827 0 00-.826-.827h-1.878a.827.827 0 00-.826.826v1.831c0 .456.37.827.826.827zm.14-2.517h1.597v1.55h-1.597zM17.413 23.475h1.878c.455 0 .826-.37.826-.826v-1.831a.827.827 0 00-.826-.826h-1.878a.827.827 0 00-.826.826v1.831c0 .456.37.826.826.826zm.14-2.516h1.597v1.55h-1.597zM17.413 27.428h1.878c.455 0 .826-.37.826-.826v-1.831a.827.827 0 00-.826-.826h-1.878a.827.827 0 00-.826.826v1.831c0 .456.37.826.826.826zm.14-2.516h1.597v1.55h-1.597zM21.702 19.523h1.878c.455 0 .826-.371.826-.827v-1.83a.827.827 0 00-.826-.827h-1.878a.827.827 0 00-.826.826v1.831c0 .456.37.827.826.827zm.14-2.517h1.597v1.55h-1.597zM21.702 23.475h1.878c.455 0 .826-.37.826-.826v-1.831a.827.827 0 00-.826-.826h-1.878a.827.827 0 00-.826.826v1.831c0 .456.37.826.826.826zm.14-2.516h1.597v1.55h-1.597zM21.702 27.428h1.878c.455 0 .826-.37.826-.826v-1.831a.827.827 0 00-.826-.826h-1.878a.827.827 0 00-.826.826v1.831c0 .456.37.826.826.826zm.14-2.516h1.597v1.55h-1.597zM25.99 19.523h1.879c.455 0 .826-.371.826-.827v-1.83a.827.827 0 00-.826-.827H25.99a.827.827 0 00-.826.826v1.831c0 .456.37.827.826.827zm.141-2.517h1.597v1.55h-1.597zM25.99 23.475h1.879c.455 0 .826-.37.826-.826v-1.831a.827.827 0 00-.826-.826H25.99a.827.827 0 00-.826.826v1.831c0 .456.37.826.826.826zm.141-2.516h1.597v1.55h-1.597zM25.99 27.428h1.879c.455 0 .826-.37.826-.826v-1.831a.827.827 0 00-.826-.826H25.99a.827.827 0 00-.826.826v1.831c0 .456.37.826.826.826zm.141-2.516h1.597v1.55h-1.597zM26.376 11.2a.936.936 0 001.108 0c.836-.611 2.841-2.286 3.407-4.637a.484.484 0 00-.94-.226c-.5 2.078-2.418 3.626-3.021 4.07-.76-.558-3.145-2.517-3.145-5.088a3.149 3.149 0 013.145-3.145c1.362 0 2.562.869 2.987 2.162a.483.483 0 10.919-.302 4.104 4.104 0 00-3.906-2.827 4.117 4.117 0 00-4.112 4.112c0 3.045 2.723 5.27 3.558 5.88z"/><path d="M26.93 3.032a2.29 2.29 0 00-2.287 2.287 2.29 2.29 0 002.287 2.288 2.29 2.29 0 002.286-2.288 2.29 2.29 0 00-2.286-2.287zm0 3.608c-.728 0-1.32-.593-1.32-1.32 0-.729.592-1.32 1.32-1.32.727 0 1.32.591 1.32 1.32 0 .727-.593 1.32-1.32 1.32z"/></g></svg>