<svg height="35" width="35" xmlns="http://www.w3.org/2000/svg"><g fill="#fff"><path d="M18.598 35h-2.196a3.226 3.226 0 01-3.222-3.222v-.743a14.13 14.13 0 01-2.195-.91l-.526.526a3.222 3.222 0 01-4.557 0l-1.553-1.553a3.222 3.222 0 010-4.557l.527-.527a14.13 14.13 0 01-.911-2.194h-.743A3.226 3.226 0 010 18.598v-2.196a3.226 3.226 0 013.222-3.222h.743c.241-.756.546-1.49.91-2.194l-.526-.527a3.222 3.222 0 010-4.557l1.553-1.553a3.222 3.222 0 014.557 0l.527.527c.705-.365 1.438-.67 2.194-.911v-.743A3.226 3.226 0 0116.402 0h2.196a3.226 3.226 0 013.222 3.222v.743c.756.241 1.49.546 2.194.91l.527-.526a3.222 3.222 0 014.557 0l1.553 1.553a3.222 3.222 0 010 4.557l-.527.527c.365.705.67 1.438.91 2.194h.744A3.226 3.226 0 0135 16.402v2.196a3.226 3.226 0 01-3.222 3.222h-.743c-.241.756-.546 1.49-.91 2.194l.526.527a3.222 3.222 0 010 4.557l-1.553 1.553a3.222 3.222 0 01-4.557 0l-.527-.527c-.705.365-1.438.67-2.194.911v.743A3.226 3.226 0 0118.598 35zm-7.27-7.03c.98.58 2.034 1.017 3.133 1.301.453.117.77.525.77.993v1.514c0 .646.525 1.171 1.17 1.171h2.197c.646 0 1.172-.525 1.172-1.171v-1.514c0-.468.316-.876.769-.993 1.1-.284 2.153-.721 3.133-1.3a1.025 1.025 0 011.247.157l1.072 1.073a1.17 1.17 0 001.656 0l1.554-1.553c.45-.45.465-1.192 0-1.656l-1.073-1.073a1.025 1.025 0 01-.157-1.247c.579-.98 1.016-2.034 1.3-3.133.117-.453.525-.77.993-.77h1.514c.646 0 1.171-.525 1.171-1.17v-2.197c0-.646-.525-1.171-1.171-1.171h-1.514c-.468 0-.876-.317-.993-.77a12.087 12.087 0 00-1.3-3.133 1.025 1.025 0 01.157-1.247l1.073-1.072a1.17 1.17 0 000-1.656l-1.553-1.554a1.171 1.171 0 00-1.656 0l-1.073 1.073a1.025 1.025 0 01-1.247.158 12.087 12.087 0 00-3.133-1.301 1.025 1.025 0 01-.77-.993V3.222c0-.646-.525-1.171-1.17-1.171h-2.197c-.646 0-1.171.525-1.171 1.171v1.514c0 .468-.317.876-.77.993-1.1.284-2.153.721-3.133 1.3a1.026 1.026 0 01-1.247-.157L9.01 5.799a1.17 1.17 0 00-1.656 0L5.799 7.352a1.171 1.171 0 000 1.656l1.073 1.073c.33.331.396.844.157 1.247-.579.98-1.016 2.034-1.3 3.133-.117.453-.525.77-.993.77H3.222c-.646 0-1.171.525-1.171 1.17v2.197c0 .646.525 1.172 1.171 1.172h1.514c.468 0 .876.316.993.769.284 1.1.721 2.153 1.3 3.133.239.403.174.916-.157 1.247L5.799 25.99a1.17 1.17 0 000 1.656l1.553 1.554c.45.45 1.193.464 1.656 0l1.073-1.073c.244-.244.751-.45 1.247-.157z"/><path d="M17.5 25.115c-4.2 0-7.615-3.416-7.615-7.615S13.3 9.885 17.5 9.885c4.2 0 7.615 3.416 7.615 7.615S21.7 25.115 17.5 25.115zm0-13.18a5.57 5.57 0 00-5.564 5.565 5.57 5.57 0 005.564 5.564 5.57 5.57 0 005.564-5.564 5.57 5.57 0 00-5.564-5.564z"/></g></svg>