<svg width="47" height="47.001" xmlns="http://www.w3.org/2000/svg">
  <g fill="#ff8d48">
    <path d="M31.84 14.243a.918.918 0 10-.001 1.836.918.918 0 000-1.836zM15.16 30.922a.918.918 0 100 1.836.918.918 0 000-1.836z"/>
    <path d="M45.86 5.648a.917.917 0 00-.86.247l-3.806 3.836H39.37l-2.009-2.08V5.8l3.752-3.808A.917.917 0 0040.752.48 9.157 9.157 0 0037.82.001c-2.99 0-5.706 1.394-7.452 3.825-1.635 2.275-2.139 5.064-1.417 7.733l-6.762 6.762L10.923 7.03V4.814a.918.918 0 00-.445-.788L3.987.131A.917.917 0 002.865.27L.27 2.865a.919.919 0 00-.138 1.122l3.895 6.49a.918.918 0 00.786.447h2.216l11.266 11.292-6.736 6.736c-2.669-.722-5.46-.217-7.736 1.418A9.075 9.075 0 000 37.821c0 1.003.16 1.99.478 2.932A.917.917 0 002 41.106l3.805-3.835H7.64l2.09 2.09v1.834l-3.836 3.806a.918.918 0 00.354 1.521 9.155 9.155 0 002.931.479 9.076 9.076 0 007.451-3.823c1.636-2.277 2.14-5.067 1.419-7.736l5.41-5.41 1.24 1.346-.57.569a.918.918 0 101.299 1.298l.515-.515L37.57 45.361l.027.027a5.507 5.507 0 007.79 0 5.516 5.516 0 00-.029-7.817l-12.65-11.605.51-.51a.918.918 0 10-1.3-1.298l-.564.565-1.349-1.237 5.437-5.437c.772.207 1.57.312 2.378.312 5.062 0 9.18-4.118 9.18-9.18 0-1.003-.162-1.99-.48-2.932a.917.917 0 00-.661-.6zM8.058 9.358a.909.909 0 00-.65-.26l-2.076-.001-3.258-5.44 1.582-1.582 5.431 3.259V7.41c0 .243.096.476.268.648L20.892 19.62l-1.299 1.299zm23.35 17.907l12.693 11.644a3.672 3.672 0 01-5.194 5.193L27.242 31.432zm-1.354-1.243l-4.057 4.057-1.24-1.346 3.948-3.949zm7.765-9.498a7.336 7.336 0 01-2.346-.382.92.92 0 00-.942.22l-18.17 18.17a.918.918 0 00-.22.943 7.269 7.269 0 01-1.003 6.632 7.26 7.26 0 01-5.96 3.058 7.52 7.52 0 01-.8-.043l2.916-2.893a.918.918 0 00.272-.652V38.98a.918.918 0 00-.27-.649L8.67 35.703a.918.918 0 00-.65-.269H5.424a.92.92 0 00-.652.272L1.879 38.62a7.426 7.426 0 01-.043-.8 7.258 7.258 0 013.058-5.96 7.269 7.269 0 016.632-1.001c.33.111.695.025.942-.221l18.17-18.17a.918.918 0 00.22-.942 7.265 7.265 0 011-6.63 7.261 7.261 0 015.962-3.06c.277 0 .552.015.824.045L35.79 4.78a.917.917 0 00-.264.644v2.597c0 .238.092.466.258.638l2.536 2.628c.173.179.411.28.66.28h2.598c.244 0 .479-.097.651-.271l2.893-2.916c.029.265.043.532.043.8 0 4.05-3.294 7.344-7.344 7.344z"/>
    <path d="M28.595 17.107L17.107 28.595a.918.918 0 001.298 1.298l11.488-11.487a.918.918 0 10-1.298-1.299zM40.195 41.494a.918.918 0 001.297-1.3l-8.275-8.248a.918.918 0 00-1.296 1.3z"/>
  </g>
</svg>
