<svg width="19" height="19" viewBox="0 0 0.891 0.891" xmlns="http://www.w3.org/2000/svg">
  <g fill="#25d366">
    <path d="M.65.53v.004C.567.493.56.488.548.504a.65.65 0 01-.035.043C.507.554.5.554.49.549.479.544.443.532.4.494A.337.337 0 01.34.417C.328.4.35.396.37.357c.004-.008.002-.014 0-.02L.336.255C.327.234.318.237.311.237.29.235.274.235.261.249.2.315.216.383.267.455c.1.132.154.156.253.19.026.008.05.007.07.005C.61.646.654.623.663.597.674.57.674.549.671.544.668.539.66.536.65.53z"/>
    <path d="M.761.128a.445.445 0 00-.757.313c0 .078.02.154.059.221L0 .891.235.829A.444.444 0 00.891.442.438.438 0 00.76.129zM.816.44A.37.37 0 01.26.756L.246.748l-.14.036L.145.65.135.635A.368.368 0 01.71.181c.07.069.107.161.107.26z"/>
  </g>
</svg>
